<?xml version='1.0' encoding='utf-8'?>
<svg xmlns:xlink="http://www.w3.org/1999/xlink" xmlns="http://www.w3.org/2000/svg" width="1920" height="1920" clip-rule="evenodd" image-rendering="optimizeQuality" shape-rendering="geometricPrecision" text-rendering="geometricPrecision" version="1.1" viewBox="0 0 54186.669 54186.669" id="svg2" style="fill-rule:evenodd"><metadata id="metadata26"/><defs id="defs4"><linearGradient id="linearGradient3094"><stop style="stop-color:#000000;stop-opacity:1;" offset="0" id="stop3096"/><stop style="stop-color:#616161;stop-opacity:1" offset="1" id="stop3098"/></linearGradient><linearGradient id="linearGradient3080"><stop style="stop-color:#fafafa;stop-opacity:1;" offset="0" id="stop3082"/></linearGradient><linearGradient id="linearGradient3068"><stop id="stop3070" offset="0" style="stop-color:#bdbdbd;stop-opacity:1;"/><stop style="stop-color:#696969;stop-opacity:1;" offset="0.80000001" id="stop3074"/><stop id="stop3072" offset="1" style="stop-color:#424242;stop-opacity:1"/></linearGradient> <style type="text/css" id="style6"> .fil0 {fill:url(#b)} .fil1 {fill:url(#a);fill-rule:nonzero} </style> <radialGradient id="b" cx="14286" cy="10789" r="13726" gradientTransform="matrix(0.10879949,22.086994,-30.965424,0.15254112,816469.56,10554.478)" gradientUnits="userSpaceOnUse"> <stop stop-color="#BDA146" offset="0" id="stop9"/> <stop stop-color="#664705" offset="1" id="stop11"/> </radialGradient> <radialGradient id="a" cx="14566" cy="10189" r="14006" gradientTransform="matrix(0.007551,0.85307,-1.1213,0.010793,6282.9555,-25627.615)" gradientUnits="userSpaceOnUse"> <stop stop-color="#E6C968" offset="0" id="stop14"/> <stop stop-color="#A78936" offset=".4" id="stop16"/> <stop stop-color="#694905" offset="1" id="stop18"/> </radialGradient> <radialGradient id="a-8" cx="14566" cy="10189" r="14006" gradientTransform="matrix(0.007551,0.85307,-1.1213,0.010793,6282.9555,-25627.615)" gradientUnits="userSpaceOnUse"><stop stop-color="#E6C968" offset="0" id="stop14-2"/><stop stop-color="#A78936" offset=".4" id="stop16-4"/><stop stop-color="#694905" offset="1" id="stop18-5"/></radialGradient><radialGradient id="b-5" cx="14286" cy="10789" r="13726" gradientTransform="matrix(0.0038551,0.78261,-1.0972,0.005405,26069,-450)" gradientUnits="userSpaceOnUse"><stop stop-color="#BDA146" offset="0" id="stop9-1"/><stop stop-color="#664705" offset="1" id="stop11-7"/></radialGradient><radialGradient xlink:href="#a-4" gradientUnits="userSpaceOnUse" gradientTransform="matrix(2.7744,0,0,1.9697,-1891.6,-872.89)" r="117.14" cy="486.65" cx="605.71" id="d"/><radialGradient xlink:href="#a-4" gradientUnits="userSpaceOnUse" gradientTransform="matrix(-2.7744,0,0,1.9697,112.76,-872.89)" r="117.14" cy="486.65" cx="605.71" id="c"/><radialGradient gradientUnits="userSpaceOnUse" gradientTransform="matrix(1,0,0,0.73779,0,9.8443)" r="2.51" cy="39.51" cx="37.496" id="b-9"><stop id="stop4204" offset="0" stop-color="#777973"/><stop id="stop4206" offset="1" stop-opacity="0" stop-color="#777973"/></radialGradient><linearGradient gradientUnits="userSpaceOnUse" gradientTransform="matrix(1,0,0,0.74476,0,9.5691)" y2="38" y1="42.319" x2="36.452" x1="40.253" id="e"><stop id="stop4199" offset="0" stop-color="#a9aaa7"/><stop id="stop4201" offset="1" stop-color="#676964"/></linearGradient><linearGradient gradientUnits="userSpaceOnUse" y2="30.108" y1="9.1246" x2="26.219" x1="11.126" id="g"><stop id="stop4194" offset="0" stop-color="#616161"/><stop id="stop4196" offset="1" stop-color="#a0a0a0"/></linearGradient><linearGradient gradientUnits="userSpaceOnUse" gradientTransform="matrix(0.95351,0,0,0.94787,1.1415,1.2056)" y2="49.731" y1="19.637" x2="48.845" x1="20.339" id="i"><stop id="stop4189" offset="0" stop-color="#fff"/><stop id="stop4191" offset="1" stop-opacity="0" stop-color="#fff"/></linearGradient><linearGradient gradientUnits="userSpaceOnUse" y2="31.082" y1="9.2629" x2="21.42" x1="9.3072" id="j"><stop id="stop4184" offset="0" stop-color="#a2a59c"/><stop id="stop4186" offset="1" stop-color="#535750"/></linearGradient><linearGradient gradientUnits="userSpaceOnUse" y2="13.616" y1="30.88" x2="24.807" x1="29.621" id="k"><stop id="stop4179" offset="0" stop-color="#777973"/><stop id="stop4181" offset="1" stop-color="#cbccca"/></linearGradient><linearGradient gradientUnits="userSpaceOnUse" y2="33.306" y1="9.5093" x2="22.565" x1="23.209" id="l"><stop id="stop4174" offset="0" stop-color="#748f48"/><stop id="stop4176" offset="1" stop-color="#1f2816"/></linearGradient><linearGradient gradientUnits="userSpaceOnUse" gradientTransform="matrix(1.2362,0,0,0.89605,-1.0818,2.8307)" y2="26.729" y1="1.6538" x2="17.199" x1="11.492" id="h"><stop id="stop4169" offset="0" stop-color="#fff"/><stop id="stop4171" offset="1" stop-opacity="0" stop-color="#fcfcff"/></linearGradient><linearGradient gradientUnits="userSpaceOnUse" y2="327.66" y1="-150.7" x2="0" id="f"><stop id="stop4162" offset="0" stop-opacity="0"/><stop id="stop4164" offset=".5"/><stop id="stop4166" offset="1" stop-opacity="0"/></linearGradient><linearGradient id="a-4"><stop id="stop4157" offset="0"/><stop id="stop4159" offset="1" stop-opacity="0"/></linearGradient><radialGradient xlink:href="#b-9" id="radialGradient4330" gradientUnits="userSpaceOnUse" gradientTransform="matrix(1044.0798,0,0,770.31164,68146.578,26184.592)" cx="37.496" cy="39.51" r="2.51"/><linearGradient xlink:href="#e" id="linearGradient4332" gradientUnits="userSpaceOnUse" gradientTransform="matrix(1044.0798,0,0,777.58887,68146.578,25897.261)" x1="40.253" y1="42.319" x2="36.452" y2="38"/><linearGradient xlink:href="#h" id="linearGradient4336" gradientUnits="userSpaceOnUse" gradientTransform="matrix(1290.6914,0,0,935.5477,63560.532,-8993.9771)" x1="11.492" y1="1.6538" x2="17.199" y2="26.729"/><linearGradient xlink:href="#i" id="linearGradient4340" gradientUnits="userSpaceOnUse" gradientTransform="matrix(995.54053,0,0,989.65192,69338.395,17165.1)" x1="20.339" y1="19.637" x2="48.845" y2="49.731"/><linearGradient xlink:href="#l" id="linearGradient4356" gradientUnits="userSpaceOnUse" x1="23.209" y1="9.5093" x2="22.565" y2="33.306" gradientTransform="matrix(1044.0798,0,0,1044.0798,71196.484,-16625.977)"/><linearGradient xlink:href="#g" id="linearGradient4358" gradientUnits="userSpaceOnUse" x1="11.126" y1="9.1246" x2="26.219" y2="30.108" gradientTransform="matrix(1044.0798,0,0,1044.0798,71196.484,-16625.977)"/><linearGradient xlink:href="#k" id="linearGradient4361" gradientUnits="userSpaceOnUse" x1="29.621" y1="30.88" x2="24.807" y2="13.616" gradientTransform="matrix(1044.0798,0,0,1044.0798,68146.578,15906.357)"/><linearGradient xlink:href="#j" id="linearGradient4363" gradientUnits="userSpaceOnUse" x1="9.3072" y1="9.2629" x2="21.42" y2="31.082" gradientTransform="matrix(1044.0798,0,0,1044.0798,68146.578,15906.357)"/><linearGradient xlink:href="#h" id="linearGradient4385" gradientUnits="userSpaceOnUse" gradientTransform="matrix(1290.6914,0,0,935.5477,63560.532,-8993.9771)" x1="11.492" y1="1.6538" x2="17.199" y2="26.729"/><linearGradient xlink:href="#h" id="linearGradient4388" gradientUnits="userSpaceOnUse" gradientTransform="matrix(1794.1238,0,0,1300.4568,-85389.801,4977.4743)" x1="11.492" y1="1.6538" x2="17.199" y2="26.729"/><style id="style4454" type="text/css"> .fil0 {fill:#630F0F} .fil2 {fill:#DAA53B} .fil1 {fill:#DAA53B;fill-rule:nonzero} </style><style id="style4606" type="text/css"> .fil0 {fill:#630F0F} .fil2 {fill:#DAA53B} .fil1 {fill:#DAA53B;fill-rule:nonzero} </style><style id="style4648" type="text/css">.fil0 {fill:#36302F}</style><linearGradient id="linearGradient3924"><stop style="stop-color:#ffc107;stop-opacity:1" offset="0" id="stop3926"/><stop style="stop-color:#ff3d00;stop-opacity:1" offset="1" id="stop3928"/></linearGradient><radialGradient xlink:href="#linearGradient3936" id="radialGradient3942" cx="-254.23387" cy="163.22523" fx="-254.23387" fy="163.22523" r="254.00002" gradientTransform="matrix(1.9487997,0.01041056,-0.00574177,1.5612666,-60.974162,130.30884)" gradientUnits="userSpaceOnUse"/><linearGradient id="linearGradient3936"><stop style="stop-color:#bdbdbd;stop-opacity:1;" offset="0" id="stop3938"/><stop style="stop-color:#616161;stop-opacity:1" offset="1" id="stop3940"/></linearGradient><radialGradient r="254.00002" fy="163.22523" fx="-254.23387" cy="163.22523" cx="-254.23387" gradientTransform="matrix(141.89191,0,0.59891606,140.29435,8882.6368,4193.7772)" gradientUnits="userSpaceOnUse" id="radialGradient3016" xlink:href="#linearGradient3068"/><radialGradient xlink:href="#linearGradient3924" id="radialGradient4828" gradientUnits="userSpaceOnUse" gradientTransform="matrix(1.2404128,0,0,1.2404128,-29.766522,-132.3137)" cx="169.51682" cy="370.44455" fx="169.51682" fy="370.44455" r="237.58788"/><style id="style4837" type="text/css">.fil0 {fill:#36302F}</style><radialGradient xlink:href="#linearGradient3924-7" id="radialGradient3930" cx="130.10765" cy="525.58545" fx="130.10765" fy="525.58545" r="237.58788" gradientUnits="userSpaceOnUse" gradientTransform="matrix(1.2788053,0,0,1.2788053,-36.274696,-146.53599)"/><linearGradient id="linearGradient3924-7"><stop style="stop-color:#ffc107;stop-opacity:1" offset="0" id="stop3926-8"/><stop style="stop-color:#ff3d00;stop-opacity:1" offset="1" id="stop3928-2"/></linearGradient><radialGradient xlink:href="#linearGradient3936-8" id="radialGradient3942-7" cx="-254.23387" cy="163.22523" fx="-254.23387" fy="163.22523" r="254.00002" gradientTransform="matrix(1.9487997,0.01041056,-0.00574177,1.5612666,-60.974162,130.30884)" gradientUnits="userSpaceOnUse"/><linearGradient id="linearGradient3936-8"><stop style="stop-color:#bdbdbd;stop-opacity:1;" offset="0" id="stop3938-0"/><stop style="stop-color:#616161;stop-opacity:1" offset="1" id="stop3940-2"/></linearGradient><radialGradient r="254.00002" fy="163.22523" fx="-254.23387" cy="163.22523" cx="-254.23387" gradientTransform="matrix(54.999461,0.29380915,-0.16204552,44.062415,-23499.715,65344.682)" gradientUnits="userSpaceOnUse" id="radialGradient3016-0" xlink:href="#linearGradient3936-8"/><linearGradient xlink:href="#linearGradient3080" id="linearGradient3086" x1="142.46552" y1="19.174931" x2="142.46552" y2="541.89349" gradientUnits="userSpaceOnUse"/><linearGradient xlink:href="#linearGradient3080" id="linearGradient3091" gradientUnits="userSpaceOnUse" x1="142.46552" y1="19.174931" x2="142.46552" y2="541.89349" gradientTransform="matrix(3.9393445,0,0,3.9393441,447.46113,-1110.4619)"/><radialGradient xlink:href="#linearGradient3094" id="radialGradient3870" cx="626.01746" cy="1193.8342" fx="626.01746" fy="1193.8342" r="959.9375" gradientUnits="userSpaceOnUse" gradientTransform="matrix(3.3149783,0.88824575,-0.88824575,3.3149783,-328.58717,-3063.6855)"/></defs> <rect style="color:#000000;fill:url(#radialGradient3016);fill-opacity:1;stroke:none;stroke-width:0.25000000000000000;marker:none;visibility:visible;display:inline;overflow:visible;enable-background:accumulate" id="rect3659" width="54186.668" height="54186.668" x="-54186.668" y="0.000515625" transform="matrix(0,-1,1,0,0,0)"/><path style="color:#000000;fill:url(#radialGradient4828);fill-opacity:1;fill-rule:nonzero;stroke:none;stroke-width:1px;marker:none;visibility:visible;display:inline;overflow:visible;enable-background:accumulate" id="path3897" d="m 367.69553,525.58545 a 237.58788,237.58788 0 1 1 -475.17575,0 237.58788,237.58788 0 1 1 475.17575,0 z" transform="matrix(111.17706,0,0,111.17705,12628.348,-31339.705)"/><path style="color:#000000;fill:url(#radialGradient3870);fill-opacity:1;fill-rule:nonzero;stroke:none;stroke-width:0.04215310000000000;marker:none;visibility:visible;display:inline;overflow:visible;filter:url(#filter3925-1);enable-background:accumulate" d="M 960,0.0625 C 429.84143,0.0625 0.0625,429.84146 0.0625,960 c 0,530.1586 429.77893,959.9375 959.9375,959.9375 530.1585,0 959.9375,-429.7789 959.9375,-959.9375 C 1919.9375,429.84146 1490.1585,0.0625 960,0.0625 z m 0,71.84375 c 490.4812,0 888.0938,397.61253 888.0938,888.09375 0,100.6418 -16.7452,197.3735 -47.5938,287.5625 -11.6212,33.9759 -25.2666,67.0221 -40.75,99 -164.0884,319.726 -744.1984,190.931 -772.96875,5.2187 81.73885,27.348 198.07235,-1.674 261.53125,-52.75 -180.1727,3.0501 -452.27586,-123.2881 -462.625,-310.21594 -5.54951,-100.23609 70.60264,-150.38123 116.1875,-163.25276 27.24183,-7.69212 80.3886,-15.9967 130.5,6.40625 46.0538,20.58612 96.7541,75.48983 102.0938,127.375 1.6331,15.86944 -0.1952,32.28973 3.5624,46.00005 3.7608,13.7191 15.0002,21.4819 23.7188,28.6874 26.28,21.7207 82.1007,60.4968 130.3125,97.4063 66.0703,50.5818 118.4226,101.08 65.5313,130.3437 102.2983,30.0396 114.255,3.4006 123.75,-6.3124 12.2089,-12.489 20.3592,-15.8199 0.125,-30.125 -1.0501,-1.0684 -2.1169,-2.1473 -3.1563,-3.2188 46.5597,-16.5718 77.7965,-43.7081 79.3437,-91.1875 -30.0909,24.5302 -70.6072,38.8629 -121.5624,42.9687 -0.7312,-0.9158 -1.4357,-1.86 -2.1563,-2.7812 30.8496,-12.6548 51.1932,-32.4304 61.0937,-59.3438 -23.49,18.077 -50.2412,29.5581 -81.5937,31.8438 -1.5086,-2.136 -3.0207,-4.3212 -4.5,-6.4688 26.7322,-14.2674 44.1368,-35.537 44.0313,-70 -20.8897,21.7072 -45.6375,28.4751 -73.1876,24.2188 -1.2747,-2.1729 -2.5289,-4.3802 -3.7812,-6.5625 26.8533,-7.0404 44.2648,-19.7903 52.25,-38.2813 -20.1855,11.7663 -42.4034,15.804 -66.6562,12.125 -12.6029,-23.8886 -24.0451,-48.3003 -34.6563,-73.0937 -0.1899,-1.59679 -0.3966,-3.15456 -0.5625,-4.71875 50.4379,12.36203 99.424,31.33955 147.4375,54.81245 97.9224,61.7813 147.2433,163.7635 159.6875,296.2188 4.3794,-52.7802 1.3872,-100.3481 -8.375,-143.0312 31.204,34.8537 78.6059,61.3212 175.375,58.7187 -196.6927,-23.9443 -186.0094,-174.333 -285.4688,-240.1875 l -3.9374,-2.5625 c -48.2525,-39.67512 -109.5478,-70.04395 -182.1563,-92.34375 9.9962,-39.96662 37.3244,-57.51743 78.125,-57.625 7.3007,-0.0191 15.6524,0.76245 24.8437,2.21875 -3.5628,18.05467 -13.1992,36.45614 -35.8124,55.53125 39.4614,-6.24302 66.6491,-22.15884 79.0312,-45.71875 4.4346,1.24009 9.0063,2.57194 13.625,3.96875 12.87,35.31692 14.7027,66.69885 -4.0312,90.6875 35.6206,-13.34711 56.0203,-38.12514 68.9687,-68.53125 2.2205,0.82354 4.4816,1.63008 6.7187,2.46875 16.8169,42.71627 21.9577,80.42024 3.3438,107.81245 47.554,-13.9099 69.0471,-41.3747 77.2812,-75.74995 l 4.4688,1.8125 c 6.0369,48.89686 -3.6489,90.50085 -35.3438,121.81245 43.471,-20.8907 80.8323,-47.4807 96.9688,-93.74995 1.3821,0.70728 2.756,1.44032 4.125,2.15625 7.9444,49.7003 -11.0703,90.332 -48.9062,124.6875 53.7047,-5.9 95.5603,-28.4279 120.6874,-74.4688 8.2364,8.4041 15.3658,17.3965 21.1563,27.0938 29.8063,-43.75835 31.5233,-88.95252 12.6875,-135.21875 -11.2914,-27.7357 -40.2675,-54.03102 -64.8125,-84.1875 -31.5584,-38.77203 -62.6652,-81.96897 -111.9375,-121.8125 7.8984,28.89223 11.3048,55.88995 8.1875,80.125 -15.4503,-9.80468 -26.8051,-21.62661 -38.3437,-30.375 -25.3906,-19.24866 -44.1398,-33.58273 -56.1563,-49.34375 -14.4871,-18.99974 -16.9993,-38.95174 -24.3125,-56.46875 -6.4541,-15.45718 -17.7905,-28.458 -28.4688,-45.625 -60.6151,-97.44059 -92.9884,-193.68747 -109.125,-289.25 -38.1465,68.67089 -44.8333,132.89117 -30.0937,194.09375 C 1233.4954,419.81759 1181.302,301.41214 1240.5312,125.375 1163.2639,201.90559 1136.1244,293.93663 1169.5,404.625 1007.0811,363.76298 940.50475,259.57795 969.75,92.0625 898.53637,174.05906 895.13741,270.29818 947.9375,378.34375 761.10782,408.43592 640.98917,355.76136 618.34375,182.15625 c -50.21029,92.3218 -44.84295,182.00135 59.53125,267 C 530.69811,549.02053 400.25653,547.80846 290.03125,424.59375 289.54844,515.0531 322.7911,594.11736 449.125,641.75 358.5192,756.73215 246.80799,781.3638 114.0625,715.5625 c 29.12706,61.68332 74.77015,114.34629 149.75,151.03125 -139.04792,82.48885 -184.494689,160.74955 -157.63913,261.94615 22.21715,-83.4573 87.14539,-92.8042 87.14539,-92.8042 -72.8587,202.986 -11.02261,353.9897 -11.02261,353.9897 C 104.2538,1258.1136 72.543044,1090.6032 71.90625,960 69.514794,469.52461 469.51881,71.90625 960,71.90625 z M 1318.375,565.625 c 46.4805,73.83327 155.8498,64.11709 149.6875,145.375 -85.5992,-3.71735 -127.5612,-62.12823 -149.6875,-145.375 z m 394.1562,303.6875 c 20.0245,10.02224 50.0933,14.07888 54.5938,65.0625 -30.4908,1.16213 -27.5582,-42.50808 -54.5938,-65.0625 z" id="path4670" transform="scale(28.222223,28.222223)"/><path style="color:#000000;fill:#fafafa;fill-opacity:1;fill-rule:nonzero;stroke:none;stroke-width:1px;marker:none;visibility:visible;display:inline;overflow:visible;enable-background:accumulate;opacity:0.15" d="M 960 24.0625 C 443.09434 24.0625 24.0625 443.09439 24.0625 960 C 24.0625 979.54707 24.693914 998.93771 25.875 1018.1875 C 302.43764 853.88677 678.15428 752.875 1092.0625 752.875 C 1385.675 752.875 1660.0779 803.716 1893.5 891.90625 C 1858.6123 406.79721 1454.001 24.0625 960 24.0625 z " transform="scale(28.222223,28.222223)" id="path3076"/></svg>